# xmcd
#
# Track frame offsets: 
#        150
#        15628
#        30705
#        45469
#        63131
#        79058
#        96890
#        115259
#        137037
#        157750
#        172932
#        189496
#        211598
#        230043
#
# Disc length: 3318 seconds
#
# Revision: 0
# Processed by: cddbd v1.5.2PL0 Copyright (c) Steve Scherf et al.
# Submitted via: ExactAudioCopy v0.99pb3
#
DISCID=a60cf40e
DTITLE=Mudfork Blues - River Cities Live
DYEAR=2006
DGENRE=Blues
TTITLE0=Further On Up The Road
TTITLE1=Blues Is All I Need
TTITLE2=Hotfingers
TTITLE3=Dirt Road
TTITLE4=Walkin'
TTITLE5=Little Engine
TTITLE6=Kansas City
TTITLE7=Black Cat Bone
TTITLE8=Chicago
TTITLE9=Get Your Hands Out Of My Pockets
TTITLE10=Drivin' On Home
TTITLE11=Hardly Workin' Man
TTITLE12=Hound Dog
TTITLE13=Boogie Woogie
EXTD=
EXTT0=
EXTT1=
EXTT2=
EXTT3=
EXTT4=
EXTT5=
EXTT6=
EXTT7=
EXTT8=
EXTT9=
EXTT10=
EXTT11=
EXTT12=
EXTT13=
PLAYORDER=
